<svg viewBox="0 0 1422 800"><circle r="15" cx="212" cy="551" fill="hsl(182, 75%, 70%)" opacity="0.36"></circle><circle r="15.5" cx="991" cy="163" fill="hsl(174, 75%, 70%)" opacity="0.60"></circle><circle r="19.5" cx="772" cy="497" fill="hsl(180, 75%, 70%)" opacity="0.70"></circle><circle r="10.5" cx="1190" cy="159" fill="hsl(162, 75%, 70%)" opacity="0.85"></circle><circle r="13" cx="802" cy="85" fill="hsl(175, 75%, 70%)" opacity="0.72"></circle><circle r="21" cx="115" cy="289" fill="hsl(185, 75%, 70%)" opacity="0.15"></circle><circle r="20" cx="392" cy="649" fill="hsl(178, 75%, 70%)" opacity="0.52"></circle><circle r="16.5" cx="28" cy="107" fill="hsl(181, 75%, 70%)" opacity="0.40"></circle><circle r="10.5" cx="1058" cy="488" fill="hsl(169, 75%, 70%)" opacity="0.78"></circle><circle r="13" cx="630" cy="112" fill="hsl(173, 75%, 70%)" opacity="0.79"></circle><circle r="10" cx="1048" cy="445" fill="hsl(169, 75%, 70%)" opacity="0.52"></circle><circle r="6" cx="1313" cy="744" fill="hsl(158, 75%, 70%)" opacity="0.40"></circle><circle r="12.5" cx="894" cy="646" fill="hsl(177, 75%, 70%)" opacity="0.18"></circle><circle r="20.5" cx="818" cy="342" fill="hsl(180, 75%, 70%)" opacity="0.48"></circle><circle r="7.5" cx="1365" cy="207" fill="hsl(158, 75%, 70%)" opacity="0.56"></circle><circle r="12.5" cx="351" cy="381" fill="hsl(179, 75%, 70%)" opacity="0.65"></circle><circle r="13.5" cx="471" cy="604" fill="hsl(177, 75%, 70%)" opacity="0.32"></circle><circle r="11" cx="1076" cy="46" fill="hsl(174, 75%, 70%)" opacity="0.77"></circle><circle r="10.5" cx="1382" cy="284" fill="hsl(158, 75%, 70%)" opacity="1.00"></circle><circle r="19.5" cx="376" cy="255" fill="hsl(178, 75%, 70%)" opacity="0.31"></circle><circle r="10.5" cx="1259" cy="603" fill="hsl(160, 75%, 70%)" opacity="0.89"></circle><circle r="5.5" cx="1329" cy="515" fill="hsl(158, 75%, 70%)" opacity="0.91"></circle><circle r="13" cx="617" cy="693" fill="hsl(179, 75%, 70%)" opacity="0.58"></circle><circle r="9" cx="1393" cy="148" fill="hsl(158, 75%, 70%)" opacity="0.88"></circle><circle r="17.5" cx="731" cy="182" fill="hsl(180, 75%, 70%)" opacity="0.37"></circle><circle r="11.5" cx="131" cy="386" fill="hsl(185, 75%, 70%)" opacity="0.77"></circle><circle r="11.5" cx="226" cy="141" fill="hsl(180, 75%, 70%)" opacity="0.66"></circle><circle r="15" cx="201" cy="428" fill="hsl(182, 75%, 70%)" opacity="0.40"></circle><circle r="10" cx="574" cy="549" fill="hsl(178, 75%, 70%)" opacity="0.23"></circle><circle r="16.5" cx="876" cy="703" fill="hsl(178, 75%, 70%)" opacity="0.79"></circle><circle r="15.5" cx="146" cy="550" fill="hsl(185, 75%, 70%)" opacity="0.24"></circle><circle r="10.5" cx="266" cy="213" fill="hsl(181, 75%, 70%)" opacity="0.63"></circle><circle r="20.5" cx="584" cy="380" fill="hsl(179, 75%, 70%)" opacity="0.81"></circle><circle r="9" cx="275" cy="627" fill="hsl(180, 75%, 70%)" opacity="0.66"></circle><circle r="15.5" cx="992" cy="224" fill="hsl(173, 75%, 70%)" opacity="0.92"></circle><circle r="11.5" cx="671" cy="521" fill="hsl(180, 75%, 70%)" opacity="0.20"></circle><circle r="12.5" cx="539" cy="658" fill="hsl(178, 75%, 70%)" opacity="0.80"></circle><circle r="12.5" cx="694" cy="607" fill="hsl(180, 75%, 70%)" opacity="0.25"></circle><circle r="13" cx="415" cy="777" fill="hsl(178, 75%, 70%)" opacity="0.86"></circle><circle r="9.5" cx="279" cy="708" fill="hsl(180, 75%, 70%)" opacity="0.99"></circle><circle r="8" cx="1112" cy="447" fill="hsl(166, 75%, 70%)" opacity="0.99"></circle><circle r="7.5" cx="1088" cy="697" fill="hsl(168, 75%, 70%)" opacity="1.00"></circle><circle r="9.5" cx="1192" cy="334" fill="hsl(162, 75%, 70%)" opacity="0.67"></circle><circle r="9" cx="1249" cy="529" fill="hsl(160, 75%, 70%)" opacity="0.16"></circle><circle r="7.5" cx="1346" cy="549" fill="hsl(158, 75%, 70%)" opacity="0.89"></circle><circle r="13" cx="671" cy="149" fill="hsl(176, 75%, 70%)" opacity="0.96"></circle><circle r="8.5" cx="698" cy="99" fill="hsl(172, 75%, 70%)" opacity="0.61"></circle><circle r="21.5" cx="396" cy="346" fill="hsl(178, 75%, 70%)" opacity="0.86"></circle><circle r="11.5" cx="1321" cy="314" fill="hsl(158, 75%, 70%)" opacity="0.37"></circle><circle r="15.5" cx="723" cy="253" fill="hsl(180, 75%, 70%)" opacity="0.61"></circle><circle r="19" cx="462" cy="157" fill="hsl(176, 75%, 70%)" opacity="0.43"></circle><circle r="11.5" cx="902" cy="21" fill="hsl(179, 75%, 70%)" opacity="0.43"></circle><circle r="8.5" cx="836" cy="20" fill="hsl(176, 75%, 70%)" opacity="0.61"></circle><circle r="6.5" cx="1403" cy="775" fill="hsl(159, 75%, 70%)" opacity="0.58"></circle><circle r="11" cx="939" cy="779" fill="hsl(175, 75%, 70%)" opacity="0.33"></circle><circle r="13" cx="751" cy="63" fill="hsl(171, 75%, 70%)" opacity="0.43"></circle><circle r="13.5" cx="942" cy="529" fill="hsl(175, 75%, 70%)" opacity="0.51"></circle><circle r="17" cx="101" cy="172" fill="hsl(185, 75%, 70%)" opacity="0.91"></circle><circle r="12.5" cx="572" cy="596" fill="hsl(178, 75%, 70%)" opacity="0.38"></circle><circle r="17" cx="589" cy="446" fill="hsl(179, 75%, 70%)" opacity="0.72"></circle><circle r="12.5" cx="596" cy="644" fill="hsl(179, 75%, 70%)" opacity="0.10"></circle><circle r="12" cx="773" cy="229" fill="hsl(180, 75%, 70%)" opacity="0.12"></circle><circle r="14" cx="489" cy="428" fill="hsl(178, 75%, 70%)" opacity="0.99"></circle><circle r="9.5" cx="203" cy="641" fill="hsl(182, 75%, 70%)" opacity="0.40"></circle><circle r="14.5" cx="428" cy="440" fill="hsl(177, 75%, 70%)" opacity="0.40"></circle><circle r="15" cx="255" cy="30" fill="hsl(173, 75%, 70%)" opacity="0.47"></circle><circle r="13" cx="535" cy="83" fill="hsl(168, 75%, 70%)" opacity="0.15"></circle><circle r="5.5" cx="1204" cy="230" fill="hsl(161, 75%, 70%)" opacity="0.47"></circle><circle r="12.5" cx="663" cy="685" fill="hsl(180, 75%, 70%)" opacity="0.91"></circle><circle r="14" cx="984" cy="342" fill="hsl(173, 75%, 70%)" opacity="0.49"></circle><circle r="16" cx="32" cy="37" fill="hsl(175, 75%, 70%)" opacity="0.72"></circle><circle r="9.5" cx="62" cy="242" fill="hsl(186, 75%, 70%)" opacity="0.56"></circle><circle r="10" cx="899" cy="371" fill="hsl(177, 75%, 70%)" opacity="0.21"></circle><circle r="13.5" cx="870" cy="253" fill="hsl(178, 75%, 70%)" opacity="0.74"></circle><circle r="15" cx="375" cy="744" fill="hsl(178, 75%, 70%)" opacity="0.61"></circle><circle r="13.5" cx="981" cy="739" fill="hsl(173, 75%, 70%)" opacity="0.82"></circle><circle r="15.5" cx="725" cy="544" fill="hsl(180, 75%, 70%)" opacity="0.36"></circle><circle r="8.5" cx="157" cy="60" fill="hsl(176, 75%, 70%)" opacity="0.81"></circle><circle r="12" cx="98" cy="357" fill="hsl(186, 75%, 70%)" opacity="0.18"></circle><circle r="11.5" cx="845" cy="120" fill="hsl(177, 75%, 70%)" opacity="0.69"></circle><circle r="9" cx="1264" cy="338" fill="hsl(160, 75%, 70%)" opacity="0.77"></circle><circle r="16" cx="979" cy="101" fill="hsl(176, 75%, 70%)" opacity="0.62"></circle><circle r="13" cx="797" cy="194" fill="hsl(180, 75%, 70%)" opacity="0.18"></circle><circle r="12.5" cx="153" cy="104" fill="hsl(180, 75%, 70%)" opacity="0.40"></circle><circle r="12" cx="948" cy="285" fill="hsl(175, 75%, 70%)" opacity="0.98"></circle><circle r="11" cx="152" cy="605" fill="hsl(185, 75%, 70%)" opacity="0.23"></circle><circle r="18" cx="454" cy="287" fill="hsl(177, 75%, 70%)" opacity="0.77"></circle><circle r="15" cx="651" cy="476" fill="hsl(180, 75%, 70%)" opacity="0.35"></circle><circle r="10.5" cx="273" cy="664" fill="hsl(180, 75%, 70%)" opacity="0.40"></circle><circle r="11" cx="875" cy="168" fill="hsl(178, 75%, 70%)" opacity="0.14"></circle><circle r="14" cx="421" cy="513" fill="hsl(178, 75%, 70%)" opacity="0.44"></circle><circle r="8.5" cx="1267" cy="231" fill="hsl(159, 75%, 70%)" opacity="0.32"></circle><circle r="21.5" cx="39" cy="517" fill="hsl(187, 75%, 70%)" opacity="0.79"></circle><circle r="13.5" cx="147" cy="705" fill="hsl(185, 75%, 70%)" opacity="0.38"></circle><circle r="10" cx="1206" cy="454" fill="hsl(161, 75%, 70%)" opacity="0.27"></circle><circle r="16.5" cx="901" cy="483" fill="hsl(177, 75%, 70%)" opacity="0.98"></circle><circle r="6.5" cx="1339" cy="781" fill="hsl(158, 75%, 70%)" opacity="0.67"></circle><circle r="9" cx="1268" cy="658" fill="hsl(159, 75%, 70%)" opacity="0.90"></circle><circle r="12" cx="1391" cy="53" fill="hsl(162, 75%, 70%)" opacity="0.56"></circle><circle r="17" cx="333" cy="48" fill="hsl(172, 75%, 70%)" opacity="0.21"></circle><circle r="15" cx="500" cy="328" fill="hsl(178, 75%, 70%)" opacity="0.33"></circle><circle r="11.5" cx="688" cy="203" fill="hsl(180, 75%, 70%)" opacity="0.40"></circle><circle r="18.5" cx="309" cy="232" fill="hsl(180, 75%, 70%)" opacity="0.92"></circle><circle r="12.5" cx="262" cy="779" fill="hsl(181, 75%, 70%)" opacity="0.58"></circle><circle r="13.5" cx="647" cy="574" fill="hsl(180, 75%, 70%)" opacity="0.15"></circle><circle r="11.5" cx="113" cy="64" fill="hsl(177, 75%, 70%)" opacity="0.84"></circle><circle r="15" cx="660" cy="267" fill="hsl(180, 75%, 70%)" opacity="0.70"></circle><circle r="9.5" cx="920" cy="186" fill="hsl(177, 75%, 70%)" opacity="0.84"></circle><circle r="8" cx="1399" cy="408" fill="hsl(158, 75%, 70%)" opacity="0.87"></circle><circle r="10.5" cx="1148" cy="770" fill="hsl(165, 75%, 70%)" opacity="0.76"></circle><circle r="13.5" cx="49" cy="764" fill="hsl(186, 75%, 70%)" opacity="0.64"></circle><circle r="12.5" cx="87" cy="217" fill="hsl(186, 75%, 70%)" opacity="0.61"></circle><circle r="14" cx="295" cy="553" fill="hsl(180, 75%, 70%)" opacity="0.22"></circle><circle r="7.5" cx="1226" cy="367" fill="hsl(160, 75%, 70%)" opacity="0.30"></circle><circle r="23.5" cx="666" cy="334" fill="hsl(180, 75%, 70%)" opacity="0.30"></circle><circle r="9" cx="837" cy="63" fill="hsl(176, 75%, 70%)" opacity="0.78"></circle><circle r="12" cx="207" cy="218" fill="hsl(182, 75%, 70%)" opacity="0.52"></circle><circle r="17" cx="712" cy="741" fill="hsl(180, 75%, 70%)" opacity="0.34"></circle><circle r="13.5" cx="572" cy="232" fill="hsl(178, 75%, 70%)" opacity="0.99"></circle><circle r="12" cx="469" cy="485" fill="hsl(177, 75%, 70%)" opacity="0.39"></circle><circle r="12.5" cx="437" cy="29" fill="hsl(168, 75%, 70%)" opacity="0.80"></circle><circle r="20" cx="953" cy="41" fill="hsl(180, 75%, 70%)" opacity="0.39"></circle><circle r="13.5" cx="274" cy="168" fill="hsl(180, 75%, 70%)" opacity="0.26"></circle><circle r="8" cx="1380" cy="635" fill="hsl(158, 75%, 70%)" opacity="0.61"></circle><circle r="8" cx="1114" cy="633" fill="hsl(166, 75%, 70%)" opacity="0.23"></circle><circle r="15" cx="120" cy="625" fill="hsl(185, 75%, 70%)" opacity="0.25"></circle><circle r="12.5" cx="521" cy="557" fill="hsl(178, 75%, 70%)" opacity="0.41"></circle><circle r="12.5" cx="542" cy="778" fill="hsl(178, 75%, 70%)" opacity="0.61"></circle><circle r="20.5" cx="573" cy="298" fill="hsl(178, 75%, 70%)" opacity="0.61"></circle><circle r="12.5" cx="1230" cy="29" fill="hsl(166, 75%, 70%)" opacity="0.11"></circle><circle r="13" cx="1043" cy="711" fill="hsl(171, 75%, 70%)" opacity="0.57"></circle><circle r="11.5" cx="395" cy="50" fill="hsl(171, 75%, 70%)" opacity="0.16"></circle><circle r="15.5" cx="375" cy="538" fill="hsl(178, 75%, 70%)" opacity="0.41"></circle><circle r="6.5" cx="1404" cy="465" fill="hsl(159, 75%, 70%)" opacity="0.62"></circle><circle r="14.5" cx="1014" cy="627" fill="hsl(172, 75%, 70%)" opacity="0.45"></circle><circle r="11" cx="1389" cy="349" fill="hsl(158, 75%, 70%)" opacity="0.29"></circle><circle r="14" cx="37" cy="269" fill="hsl(187, 75%, 70%)" opacity="0.39"></circle><circle r="12.5" cx="91" cy="26" fill="hsl(175, 75%, 70%)" opacity="0.47"></circle><circle r="11.5" cx="500" cy="27" fill="hsl(166, 75%, 70%)" opacity="0.75"></circle><circle r="9.5" cx="1318" cy="218" fill="hsl(158, 75%, 70%)" opacity="0.49"></circle><circle r="11.5" cx="243" cy="685" fill="hsl(182, 75%, 70%)" opacity="0.97"></circle><circle r="14" cx="840" cy="206" fill="hsl(180, 75%, 70%)" opacity="0.89"></circle><circle r="14.5" cx="602" cy="766" fill="hsl(179, 75%, 70%)" opacity="0.22"></circle><circle r="11.5" cx="95" cy="721" fill="hsl(186, 75%, 70%)" opacity="0.84"></circle><circle r="11.5" cx="730" cy="121" fill="hsl(175, 75%, 70%)" opacity="0.83"></circle><circle r="9" cx="1203" cy="515" fill="hsl(161, 75%, 70%)" opacity="0.93"></circle><circle r="16" cx="1067" cy="176" fill="hsl(169, 75%, 70%)" opacity="0.71"></circle><circle r="19" cx="512" cy="227" fill="hsl(178, 75%, 70%)" opacity="0.47"></circle><circle r="10" cx="1151" cy="72" fill="hsl(168, 75%, 70%)" opacity="0.74"></circle><circle r="11" cx="1331" cy="37" fill="hsl(164, 75%, 70%)" opacity="0.62"></circle><circle r="8.5" cx="1323" cy="100" fill="hsl(159, 75%, 70%)" opacity="0.31"></circle><circle r="10.5" cx="328" cy="420" fill="hsl(179, 75%, 70%)" opacity="0.34"></circle><circle r="13" cx="265" cy="591" fill="hsl(181, 75%, 70%)" opacity="0.42"></circle><circle r="13.5" cx="899" cy="414" fill="hsl(177, 75%, 70%)" opacity="0.64"></circle><circle r="11" cx="963" cy="433" fill="hsl(174, 75%, 70%)" opacity="0.62"></circle><circle r="6.5" cx="1099" cy="665" fill="hsl(167, 75%, 70%)" opacity="0.10"></circle><circle r="7.5" cx="1139" cy="675" fill="hsl(165, 75%, 70%)" opacity="0.26"></circle><circle r="19.5" cx="101" cy="526" fill="hsl(186, 75%, 70%)" opacity="0.59"></circle><circle r="9.5" cx="1238" cy="771" fill="hsl(160, 75%, 70%)" opacity="0.15"></circle><circle r="17.5" cx="174" cy="319" fill="hsl(184, 75%, 70%)" opacity="0.30"></circle><circle r="11" cx="176" cy="579" fill="hsl(184, 75%, 70%)" opacity="0.62"></circle><circle r="9" cx="1224" cy="698" fill="hsl(160, 75%, 70%)" opacity="0.35"></circle><circle r="14.5" cx="852" cy="470" fill="hsl(179, 75%, 70%)" opacity="0.31"></circle><circle r="18.5" cx="766" cy="764" fill="hsl(180, 75%, 70%)" opacity="0.72"></circle><circle r="13.5" cx="479" cy="532" fill="hsl(177, 75%, 70%)" opacity="0.61"></circle><circle r="8" cx="1345" cy="142" fill="hsl(158, 75%, 70%)" opacity="0.57"></circle><circle r="7.5" cx="1400" cy="573" fill="hsl(159, 75%, 70%)" opacity="0.69"></circle><circle r="16.5" cx="606" cy="521" fill="hsl(179, 75%, 70%)" opacity="0.75"></circle><circle r="8.5" cx="1107" cy="486" fill="hsl(167, 75%, 70%)" opacity="0.13"></circle><circle r="8" cx="751" cy="17" fill="hsl(170, 75%, 70%)" opacity="0.74"></circle><circle r="12" cx="915" cy="738" fill="hsl(177, 75%, 70%)" opacity="0.13"></circle><circle r="8" cx="1286" cy="772" fill="hsl(159, 75%, 70%)" opacity="0.34"></circle><circle r="9.5" cx="1121" cy="207" fill="hsl(166, 75%, 70%)" opacity="0.26"></circle><circle r="8" cx="549" cy="523" fill="hsl(178, 75%, 70%)" opacity="0.96"></circle><circle r="17.5" cx="351" cy="593" fill="hsl(179, 75%, 70%)" opacity="0.72"></circle><circle r="11.5" cx="955" cy="386" fill="hsl(175, 75%, 70%)" opacity="0.59"></circle><circle r="10.5" cx="873" cy="53" fill="hsl(177, 75%, 70%)" opacity="0.67"></circle><circle r="16" cx="533" cy="482" fill="hsl(178, 75%, 70%)" opacity="0.74"></circle><circle r="9" cx="687" cy="558" fill="hsl(180, 75%, 70%)" opacity="0.50"></circle><circle r="13" cx="1050" cy="341" fill="hsl(169, 75%, 70%)" opacity="0.96"></circle><circle r="15.5" cx="873" cy="321" fill="hsl(178, 75%, 70%)" opacity="0.30"></circle><circle r="18.5" cx="772" cy="583" fill="hsl(180, 75%, 70%)" opacity="0.11"></circle><circle r="10" cx="206" cy="177" fill="hsl(182, 75%, 70%)" opacity="0.20"></circle><circle r="13" cx="969" cy="479" fill="hsl(174, 75%, 70%)" opacity="0.73"></circle><circle r="15" cx="822" cy="266" fill="hsl(180, 75%, 70%)" opacity="0.54"></circle><circle r="22" cx="739" cy="364" fill="hsl(181, 75%, 70%)" opacity="0.24"></circle><circle r="10.5" cx="835" cy="158" fill="hsl(178, 75%, 70%)" opacity="0.52"></circle><circle r="7" cx="1344" cy="604" fill="hsl(158, 75%, 70%)" opacity="0.94"></circle><circle r="7" cx="918" cy="322" fill="hsl(177, 75%, 70%)" opacity="0.54"></circle><circle r="7.5" cx="1197" cy="759" fill="hsl(162, 75%, 70%)" opacity="0.43"></circle><circle r="12" cx="1195" cy="590" fill="hsl(162, 75%, 70%)" opacity="0.31"></circle><circle r="16" cx="364" cy="185" fill="hsl(178, 75%, 70%)" opacity="0.21"></circle><circle r="11" cx="570" cy="27" fill="hsl(165, 75%, 70%)" opacity="0.60"></circle><circle r="4.5" cx="1409" cy="190" fill="hsl(159, 75%, 70%)" opacity="0.84"></circle><circle r="15" cx="473" cy="89" fill="hsl(169, 75%, 70%)" opacity="0.62"></circle><circle r="19" cx="27" cy="445" fill="hsl(187, 75%, 70%)" opacity="0.27"></circle><circle r="10" cx="636" cy="173" fill="hsl(177, 75%, 70%)" opacity="0.67"></circle><circle r="9" cx="1174" cy="640" fill="hsl(163, 75%, 70%)" opacity="0.96"></circle><circle r="14" cx="303" cy="106" fill="hsl(176, 75%, 70%)" opacity="0.18"></circle><circle r="10.5" cx="1151" cy="426" fill="hsl(165, 75%, 70%)" opacity="0.90"></circle><circle r="14.5" cx="1028" cy="26" fill="hsl(178, 75%, 70%)" opacity="0.79"></circle><circle r="16" cx="583" cy="164" fill="hsl(177, 75%, 70%)" opacity="0.75"></circle><circle r="6.5" cx="1395" cy="237" fill="hsl(158, 75%, 70%)" opacity="0.50"></circle><circle r="19" cx="764" cy="291" fill="hsl(180, 75%, 70%)" opacity="0.76"></circle><circle r="16" cx="276" cy="459" fill="hsl(180, 75%, 70%)" opacity="0.60"></circle><circle r="18" cx="385" cy="125" fill="hsl(175, 75%, 70%)" opacity="0.63"></circle><circle r="7" cx="1170" cy="691" fill="hsl(163, 75%, 70%)" opacity="0.80"></circle><circle r="9" cx="1279" cy="450" fill="hsl(159, 75%, 70%)" opacity="0.55"></circle><circle r="15.5" cx="20" cy="315" fill="hsl(187, 75%, 70%)" opacity="0.63"></circle><circle r="21" cx="162" cy="470" fill="hsl(184, 75%, 70%)" opacity="0.68"></circle><circle r="9" cx="15" cy="773" fill="hsl(187, 75%, 70%)" opacity="0.61"></circle><circle r="14.5" cx="63" cy="336" fill="hsl(186, 75%, 70%)" opacity="0.23"></circle><circle r="19" cx="759" cy="431" fill="hsl(180, 75%, 70%)" opacity="0.50"></circle><circle r="17" cx="26" cy="381" fill="hsl(187, 75%, 70%)" opacity="0.42"></circle><circle r="9" cx="1296" cy="699" fill="hsl(159, 75%, 70%)" opacity="0.24"></circle><circle r="13" cx="625" cy="40" fill="hsl(166, 75%, 70%)" opacity="0.74"></circle><circle r="7" cx="1289" cy="522" fill="hsl(159, 75%, 70%)" opacity="0.75"></circle><circle r="11.5" cx="937" cy="227" fill="hsl(175, 75%, 70%)" opacity="0.33"></circle><circle r="7.5" cx="1343" cy="714" fill="hsl(158, 75%, 70%)" opacity="0.97"></circle><circle r="8.5" cx="1223" cy="269" fill="hsl(160, 75%, 70%)" opacity="0.32"></circle><circle r="10" cx="1118" cy="721" fill="hsl(166, 75%, 70%)" opacity="0.54"></circle><circle r="18.5" cx="163" cy="240" fill="hsl(184, 75%, 70%)" opacity="0.54"></circle><circle r="7.5" cx="656" cy="227" fill="hsl(180, 75%, 70%)" opacity="0.99"></circle><circle r="11.5" cx="619" cy="603" fill="hsl(179, 75%, 70%)" opacity="0.24"></circle><circle r="8.5" cx="1304" cy="581" fill="hsl(159, 75%, 70%)" opacity="0.40"></circle><circle r="19" cx="280" cy="369" fill="hsl(180, 75%, 70%)" opacity="0.79"></circle><circle r="10.5" cx="1114" cy="587" fill="hsl(166, 75%, 70%)" opacity="0.79"></circle><circle r="12" cx="573" cy="693" fill="hsl(178, 75%, 70%)" opacity="0.38"></circle><circle r="10.5" cx="205" cy="607" fill="hsl(182, 75%, 70%)" opacity="0.54"></circle><circle r="10.5" cx="1053" cy="270" fill="hsl(169, 75%, 70%)" opacity="0.66"></circle><circle r="8" cx="1209" cy="404" fill="hsl(161, 75%, 70%)" opacity="0.68"></circle><circle r="13.5" cx="1002" cy="288" fill="hsl(172, 75%, 70%)" opacity="0.84"></circle><circle r="11.5" cx="1339" cy="393" fill="hsl(158, 75%, 70%)" opacity="0.88"></circle><circle r="13.5" cx="106" cy="682" fill="hsl(186, 75%, 70%)" opacity="0.52"></circle><circle r="9.5" cx="1281" cy="395" fill="hsl(159, 75%, 70%)" opacity="0.17"></circle><circle r="14.5" cx="966" cy="577" fill="hsl(174, 75%, 70%)" opacity="0.47"></circle><circle r="22" cx="90" cy="428" fill="hsl(186, 75%, 70%)" opacity="0.79"></circle><circle r="11.5" cx="1073" cy="392" fill="hsl(168, 75%, 70%)" opacity="0.61"></circle><circle r="8.5" cx="1164" cy="200" fill="hsl(163, 75%, 70%)" opacity="0.22"></circle><circle r="17" cx="204" cy="737" fill="hsl(182, 75%, 70%)" opacity="0.39"></circle><circle r="10" cx="1386" cy="686" fill="hsl(158, 75%, 70%)" opacity="0.92"></circle><circle r="9" cx="1149" cy="134" fill="hsl(165, 75%, 70%)" opacity="0.87"></circle><circle r="13" cx="528" cy="605" fill="hsl(178, 75%, 70%)" opacity="0.54"></circle><circle r="11" cx="906" cy="278" fill="hsl(177, 75%, 70%)" opacity="0.92"></circle><circle r="10" cx="1101" cy="75" fill="hsl(171, 75%, 70%)" opacity="0.81"></circle><circle r="13.5" cx="817" cy="653" fill="hsl(180, 75%, 70%)" opacity="0.95"></circle><circle r="14.5" cx="866" cy="774" fill="hsl(179, 75%, 70%)" opacity="0.19"></circle><circle r="11.5" cx="1150" cy="24" fill="hsl(172, 75%, 70%)" opacity="0.17"></circle><circle r="15" cx="899" cy="95" fill="hsl(177, 75%, 70%)" opacity="0.91"></circle><circle r="18.5" cx="24" cy="185" fill="hsl(187, 75%, 70%)" opacity="0.80"></circle><circle r="8" cx="1276" cy="278" fill="hsl(159, 75%, 70%)" opacity="0.41"></circle><circle r="28.5" cx="47" cy="618" fill="hsl(186, 75%, 70%)" opacity="0.94"></circle><circle r="13" cx="822" cy="756" fill="hsl(180, 75%, 70%)" opacity="0.56"></circle><circle r="8" cx="1165" cy="276" fill="hsl(163, 75%, 70%)" opacity="0.91"></circle><circle r="10" cx="669" cy="76" fill="hsl(170, 75%, 70%)" opacity="0.77"></circle><circle r="8.5" cx="1361" cy="451" fill="hsl(158, 75%, 70%)" opacity="0.19"></circle><circle r="13" cx="238" cy="395" fill="hsl(182, 75%, 70%)" opacity="0.79"></circle><circle r="17.5" cx="475" cy="767" fill="hsl(177, 75%, 70%)" opacity="0.25"></circle><circle r="9.5" cx="1155" cy="513" fill="hsl(165, 75%, 70%)" opacity="0.87"></circle><circle r="9.5" cx="889" cy="217" fill="hsl(177, 75%, 70%)" opacity="0.17"></circle><circle r="16.5" cx="1022" cy="531" fill="hsl(171, 75%, 70%)" opacity="0.59"></circle><circle r="16" cx="655" cy="758" fill="hsl(180, 75%, 70%)" opacity="0.26"></circle><circle r="6" cx="1171" cy="242" fill="hsl(163, 75%, 70%)" opacity="0.11"></circle><circle r="12" cx="335" cy="749" fill="hsl(179, 75%, 70%)" opacity="0.43"></circle><circle r="13.5" cx="178" cy="678" fill="hsl(183, 75%, 70%)" opacity="0.92"></circle><circle r="18" cx="952" cy="675" fill="hsl(175, 75%, 70%)" opacity="0.40"></circle><circle r="21.5" cx="687" cy="433" fill="hsl(180, 75%, 70%)" opacity="0.16"></circle><circle r="8.5" cx="1220" cy="80" fill="hsl(164, 75%, 70%)" opacity="0.26"></circle><circle r="11.5" cx="287" cy="744" fill="hsl(180, 75%, 70%)" opacity="0.25"></circle><circle r="14" cx="1024" cy="770" fill="hsl(171, 75%, 70%)" opacity="0.96"></circle><circle r="22" cx="31" cy="696" fill="hsl(187, 75%, 70%)" opacity="0.69"></circle><circle r="16" cx="325" cy="659" fill="hsl(179, 75%, 70%)" opacity="0.55"></circle><circle r="9.5" cx="936" cy="344" fill="hsl(175, 75%, 70%)" opacity="0.18"></circle><circle r="7" cx="1195" cy="109" fill="hsl(164, 75%, 70%)" opacity="0.97"></circle><circle r="9" cx="242" cy="230" fill="hsl(182, 75%, 70%)" opacity="0.30"></circle><circle r="6.5" cx="1173" cy="725" fill="hsl(163, 75%, 70%)" opacity="0.96"></circle><circle r="18.5" cx="748" cy="652" fill="hsl(181, 75%, 70%)" opacity="0.87"></circle><circle r="17.5" cx="778" cy="138" fill="hsl(177, 75%, 70%)" opacity="0.60"></circle><circle r="11.5" cx="487" cy="649" fill="hsl(177, 75%, 70%)" opacity="0.27"></circle><circle r="5.5" cx="1111" cy="787" fill="hsl(166, 75%, 70%)" opacity="0.84"></circle><circle r="15.5" cx="177" cy="374" fill="hsl(184, 75%, 70%)" opacity="0.14"></circle><circle r="15.5" cx="1040" cy="103" fill="hsl(174, 75%, 70%)" opacity="0.21"></circle><circle r="13.5" cx="313" cy="509" fill="hsl(179, 75%, 70%)" opacity="0.80"></circle><circle r="6" cx="646" cy="202" fill="hsl(180, 75%, 70%)" opacity="0.59"></circle><circle r="9" cx="1268" cy="122" fill="hsl(159, 75%, 70%)" opacity="0.23"></circle><circle r="12.5" cx="1132" cy="315" fill="hsl(166, 75%, 70%)" opacity="0.15"></circle><circle r="15.5" cx="164" cy="153" fill="hsl(182, 75%, 70%)" opacity="0.30"></circle><circle r="14" cx="420" cy="714" fill="hsl(178, 75%, 70%)" opacity="0.29"></circle><circle r="12.5" cx="173" cy="24" fill="hsl(174, 75%, 70%)" opacity="0.65"></circle><circle r="17" cx="431" cy="215" fill="hsl(177, 75%, 70%)" opacity="0.42"></circle><circle r="15.5" cx="379" cy="464" fill="hsl(178, 75%, 70%)" opacity="0.25"></circle><circle r="15" cx="852" cy="623" fill="hsl(179, 75%, 70%)" opacity="0.96"></circle><circle r="17.5" cx="823" cy="419" fill="hsl(180, 75%, 70%)" opacity="0.61"></circle><circle r="14.5" cx="1011" cy="408" fill="hsl(172, 75%, 70%)" opacity="0.47"></circle><circle r="8" cx="1224" cy="200" fill="hsl(160, 75%, 70%)" opacity="0.68"></circle><circle r="16" cx="789" cy="700" fill="hsl(180, 75%, 70%)" opacity="0.84"></circle><circle r="10" cx="1078" cy="767" fill="hsl(168, 75%, 70%)" opacity="0.91"></circle><circle r="18.5" cx="233" cy="499" fill="hsl(182, 75%, 70%)" opacity="0.73"></circle><circle r="11" cx="1107" cy="120" fill="hsl(169, 75%, 70%)" opacity="0.37"></circle><circle r="8" cx="1261" cy="169" fill="hsl(159, 75%, 70%)" opacity="0.94"></circle><circle r="15" cx="165" cy="776" fill="hsl(184, 75%, 70%)" opacity="0.79"></circle><circle r="13" cx="685" cy="650" fill="hsl(180, 75%, 70%)" opacity="0.50"></circle><circle r="14" cx="534" cy="144" fill="hsl(174, 75%, 70%)" opacity="0.25"></circle><circle r="19" cx="84" cy="112" fill="hsl(183, 75%, 70%)" opacity="0.62"></circle><circle r="15.5" cx="220" cy="82" fill="hsl(177, 75%, 70%)" opacity="0.57"></circle><circle r="6.5" cx="864" cy="12" fill="hsl(177, 75%, 70%)" opacity="0.13"></circle><circle r="11.5" cx="586" cy="94" fill="hsl(170, 75%, 70%)" opacity="0.96"></circle><circle r="21.5" cx="239" cy="293" fill="hsl(182, 75%, 70%)" opacity="0.42"></circle><circle r="15.5" cx="428" cy="580" fill="hsl(177, 75%, 70%)" opacity="0.84"></circle><circle r="16.5" cx="531" cy="726" fill="hsl(178, 75%, 70%)" opacity="0.38"></circle><circle r="12" cx="321" cy="158" fill="hsl(178, 75%, 70%)" opacity="0.40"></circle><circle r="14.5" cx="468" cy="692" fill="hsl(177, 75%, 70%)" opacity="0.90"></circle><circle r="11" cx="1096" cy="255" fill="hsl(167, 75%, 70%)" opacity="0.89"></circle><circle r="6.5" cx="1381" cy="749" fill="hsl(158, 75%, 70%)" opacity="0.33"></circle><circle r="12.5" cx="612" cy="220" fill="hsl(179, 75%, 70%)" opacity="0.87"></circle><circle r="11.5" cx="934" cy="618" fill="hsl(175, 75%, 70%)" opacity="0.18"></circle><circle r="11" cx="798" cy="25" fill="hsl(173, 75%, 70%)" opacity="0.57"></circle><circle r="8.5" cx="1281" cy="45" fill="hsl(162, 75%, 70%)" opacity="0.62"></circle><circle r="12.5" cx="690" cy="27" fill="hsl(168, 75%, 70%)" opacity="0.62"></circle><circle r="9.5" cx="1387" cy="514" fill="hsl(158, 75%, 70%)" opacity="0.25"></circle><circle r="8" cx="217" cy="680" fill="hsl(182, 75%, 70%)" opacity="0.41"></circle><circle r="11" cx="1093" cy="542" fill="hsl(167, 75%, 70%)" opacity="0.22"></circle><circle r="10" cx="260" cy="108" fill="hsl(178, 75%, 70%)" opacity="0.19"></circle><circle r="7.5" cx="1318" cy="478" fill="hsl(158, 75%, 70%)" opacity="0.94"></circle><circle r="12" cx="1124" cy="373" fill="hsl(166, 75%, 70%)" opacity="0.82"></circle><circle r="13.5" cx="920" cy="142" fill="hsl(176, 75%, 70%)" opacity="0.59"></circle><circle r="12" cx="329" cy="460" fill="hsl(179, 75%, 70%)" opacity="0.79"></circle><circle r="13" cx="487" cy="378" fill="hsl(177, 75%, 70%)" opacity="0.74"></circle><circle r="22.5" cx="314" cy="305" fill="hsl(179, 75%, 70%)" opacity="0.48"></circle><circle r="11.5" cx="1060" cy="646" fill="hsl(169, 75%, 70%)" opacity="1.00"></circle><circle r="18" cx="830" cy="548" fill="hsl(180, 75%, 70%)" opacity="0.73"></circle><circle r="18" cx="887" cy="567" fill="hsl(178, 75%, 70%)" opacity="0.92"></circle><circle r="17.5" cx="98" cy="767" fill="hsl(186, 75%, 70%)" opacity="0.25"></circle></svg>