<svg id="visual" viewBox="0 0 900 450" width="900" height="450" xmlns="http://www.w3.org/2000/svg" xmlns:xlink="http://www.w3.org/1999/xlink" version="1.1"><rect x="0" y="0" width="900" height="450" fill="#FBFBFB"></rect><g fill="#194AC1"><path d="M0 -97.2L21.8 -30L92.5 -30L35.3 11.5L57.1 78.6L0 37.1L-57.1 78.6L-35.3 11.5L-92.5 -30L-21.8 -30Z" transform="translate(54 413)"></path><path d="M0 -42.5L9.5 -13.1L40.4 -13.1L15.4 5L25 34.4L0 16.2L-25 34.4L-15.4 5L-40.4 -13.1L-9.5 -13.1Z" transform="translate(371 127)"></path><path d="M0 -63.2L14.2 -19.5L60.1 -19.5L23 7.5L37.2 51.2L0 24.2L-37.2 51.2L-23 7.5L-60.1 -19.5L-14.2 -19.5Z" transform="translate(361 358)"></path><path d="M0 -88.7L19.9 -27.4L84.4 -27.4L32.2 10.5L52.1 71.8L0 33.9L-52.1 71.8L-32.2 10.5L-84.4 -27.4L-19.9 -27.4Z" transform="translate(157 70)"></path><path d="M0 -57.6L12.9 -17.8L54.8 -17.8L20.9 6.8L33.8 46.6L0 22L-33.8 46.6L-20.9 6.8L-54.8 -17.8L-12.9 -17.8Z" transform="translate(593 312)"></path></g></svg>
